<svg xmlns="http://www.w3.org/2000/svg" width="72" height="216" viewBox="0 0 72 216"><path d="M-48,-144.0 L-48,-264.0 A24,24 0 0 1 0,-264.0 L0,-216.0 M-48,72.0 L-48,-48.0 A24,24 0 0 1 0,-48.0 L0,0.0 M-48,288.0 L-48,168.0 A24,24 0 0 1 0,168.0 L0,216.0 M-48,504.0 L-48,384.0 A24,24 0 0 1 0,384.0 L0,432.0 M-48,720.0 L-48,600.0 A24,24 0 0 1 0,600.0 L0,648.0 M-24,-288.0 L-24,-408.0 A24,24 0 0 1 24,-408.0 L24,-360.0 M-24,-72.0 L-24,-192.0 A24,24 0 0 1 24,-192.0 L24,-144.0 M-24,144.0 L-24,24.0 A24,24 0 0 1 24,24.0 L24,72.0 M-24,360.0 L-24,240.0 A24,24 0 0 1 24,240.0 L24,288.0 M-24,576.0 L-24,456.0 A24,24 0 0 1 24,456.0 L24,504.0 M0,-216.0 L0,-336.0 A24,24 0 0 1 48,-336.0 L48,-288.0 M0,0.0 L0,-120.0 A24,24 0 0 1 48,-120.0 L48,-72.0 M0,216.0 L0,96.0 A24,24 0 0 1 48,96.0 L48,144.0 M0,432.0 L0,312.0 A24,24 0 0 1 48,312.0 L48,360.0 M0,648.0 L0,528.0 A24,24 0 0 1 48,528.0 L48,576.0 M24,-144.0 L24,-264.0 A24,24 0 0 1 72,-264.0 L72,-216.0 M24,72.0 L24,-48.0 A24,24 0 0 1 72,-48.0 L72,0.0 M24,288.0 L24,168.0 A24,24 0 0 1 72,168.0 L72,216.0 M24,504.0 L24,384.0 A24,24 0 0 1 72,384.0 L72,432.0 M24,720.0 L24,600.0 A24,24 0 0 1 72,600.0 L72,648.0 M48,-288.0 L48,-408.0 A24,24 0 0 1 96,-408.0 L96,-360.0 M48,-72.0 L48,-192.0 A24,24 0 0 1 96,-192.0 L96,-144.0 M48,144.0 L48,24.0 A24,24 0 0 1 96,24.0 L96,72.0 M48,360.0 L48,240.0 A24,24 0 0 1 96,240.0 L96,288.0 M48,576.0 L48,456.0 A24,24 0 0 1 96,456.0 L96,504.0 M72,-216.0 L72,-336.0 A24,24 0 0 1 120,-336.0 L120,-288.0 M72,0.0 L72,-120.0 A24,24 0 0 1 120,-120.0 L120,-72.0 M72,216.0 L72,96.0 A24,24 0 0 1 120,96.0 L120,144.0 M72,432.0 L72,312.0 A24,24 0 0 1 120,312.0 L120,360.0 M72,648.0 L72,528.0 A24,24 0 0 1 120,528.0 L120,576.0" fill="none" stroke="#CA7643" stroke-width="3.2"/></svg>